<?xml version="1.0" encoding="UTF-8" standalone="no"?>
<svg
   xmlns:dc="http://purl.org/dc/elements/1.1/"
   xmlns:cc="http://creativecommons.org/ns#"
   xmlns:rdf="http://www.w3.org/1999/02/22-rdf-syntax-ns#"
   xmlns:svg="http://www.w3.org/2000/svg"
   xmlns="http://www.w3.org/2000/svg"
   version="1.1"
   id="svg2"
   viewBox="0 0 744.09448819 1052.3622047"
   height="297mm"
   width="210mm">
  <defs
     id="defs4">
    <marker
       refY="0.0"
       refX="0.0"
       style="overflow:visible"
       id="DistanceX"
       orient="auto">
      <path
         style="stroke:#000000; stroke-width:0.5"
         d="M 3,-3 L -3,3 M 0,-5 L  0,5"
         id="path4212" />
    </marker>
    <pattern
       height="8"
       width="8"
       patternUnits="userSpaceOnUse"
       y="0"
       x="0"
       id="Hatch">
      <path
         linecap="square"
         stroke="#000000"
         stroke-width="0.25"
         d="M8 4 l-4,4"
         id="path4215" />
      <path
         linecap="square"
         stroke="#000000"
         stroke-width="0.25"
         d="M6 2 l-4,4"
         id="path4217" />
      <path
         linecap="square"
         stroke="#000000"
         stroke-width="0.25"
         d="M4 0 l-4,4"
         id="path4219" />
    </pattern>
    <symbol
       id="*MODEL_SPACE" />
    <symbol
       id="*PAPER_SPACE" />
  </defs>
  <metadata
     id="metadata7">
    <rdf:RDF>
      <cc:Work
         rdf:about="">
        <dc:format>image/svg+xml</dc:format>
        <dc:type
           rdf:resource="http://purl.org/dc/dcmitype/StillImage" />
        <dc:title></dc:title>
      </cc:Work>
    </rdf:RDF>
  </metadata>
  <g
     id="layer1">
    <g
       transform="translate(70.71426,-479.6232)"
       id="g4223">
      <path
         style="fill:none;stroke:#000000"
         d="m -40.03937,1496.339 a 6.023625,6.023625 0 1 0 -12.04725,0 6.023625,6.023625 0 1 0 12.04725,0 z"
         id="path4225" />
      <path
         style="fill:none;stroke:#000000"
         d="m 52.08662,1496.339 a 6.023625,6.023625 0 1 0 -12.04725,0 6.023625,6.023625 0 1 0 12.04725,0 z"
         id="path4227" />
      <path
         style="fill:none;stroke:#000000"
         d="m 52.08662,1333.346 a 6.023625,6.023625 0 1 0 -12.04725,0 6.023625,6.023625 0 1 0 12.04725,0 z"
         id="path4229" />
      <path
         style="fill:none;stroke:#000000"
         d="m -40.03937,1333.346 a 6.023625,6.023625 0 1 0 -12.04725,0 6.023625,6.023625 0 1 0 12.04725,0 z"
         id="path4231" />
      <path
         style="fill:none;stroke:#000000"
         d="m 42.51969,1306.772 a 15.94488,15.94488 0 0 1 15.94488,15.945 l 0,184.252 a 15.94488,15.94488 0 0 1 -15.94488,15.944 l -85.03938,0 a 15.94488,15.94488 0 0 1 -15.94488,-15.944 l 0,-184.252 a 15.94488,15.94488 0 0 1 15.94488,-15.945 l 85.03938,0 z"
         id="path4233" />
    </g>
  </g>
</svg>
