0
SECTION
2
HEADER
9
$INSUNITS
70
4
9
$ACADVER
1
AC1014
9
$HANDSEED
5
FFFF
0
ENDSEC
0
SECTION
2
TABLES
0
TABLE
2
VPORT
5
8
100
AcDbSymbolTable
0
ENDTAB
0
TABLE
2
LTYPE
5
5
100
AcDbSymbolTable
0
LTYPE
5
14
100
AcDbSymbolTableRecord
100
AcDbLinetypeTableRecord
2
BYBLOCK
70
0
0
LTYPE
5
15
100
AcDbSymbolTableRecord
100
AcDbLinetypeTableRecord
2
BYLAYER
70
0
0
ENDTAB
0
TABLE
2
LAYER
5
2
100
AcDbSymbolTable
70
2
0
LAYER
5
50
100
AcDbSymbolTableRecord
100
AcDbLayerTableRecord
2
0
70
0
6
CONTINUOUS
0
ENDTAB
0
TABLE
2
STYLE
5
3
100
AcDbSymbolTable
70
1
0
STYLE
5
11
100
AcDbSymbolTableRecord
100
AcDbTextStyleTableRecord
2
STANDARD
70
0
0
ENDTAB
0
TABLE
2
VIEW
5
6
100
AcDbSymbolTable
70
0
0
ENDTAB
0
TABLE
2
UCS
5
7
100
AcDbSymbolTable
70
0
0
ENDTAB
0
TABLE
2
APPID
5
9
100
AcDbSymbolTable
70
2
0
APPID
5
12
100
AcDbSymbolTableRecord
100
AcDbRegAppTableRecord
2
ACAD
70
0
0
ENDTAB
0
TABLE
2
DIMSTYLE
5
A
100
AcDbSymbolTable
70
1
0
ENDTAB
0
TABLE
2
BLOCK_RECORD
5
1
100
AcDbSymbolTable
70
1
0
BLOCK_RECORD
5
1F
100
AcDbSymbolTableRecord
100
AcDbBlockTableRecord
2
*MODEL_SPACE
0
BLOCK_RECORD
5
1B
100
AcDbSymbolTableRecord
100
AcDbBlockTableRecord
2
*PAPER_SPACE
0
ENDTAB
0
ENDSEC
0
SECTION
2
BLOCKS
0
BLOCK
5
20
100
AcDbEntity
100
AcDbBlockBegin
2
*MODEL_SPACE
0
ENDBLK
5
21
100
AcDbEntity
100
AcDbBlockEnd
0
BLOCK
5
1C
100
AcDbEntity
100
AcDbBlockBegin
2
*PAPER_SPACE
0
ENDBLK
5
1D
100
AcDbEntity
100
AcDbBlockEnd
0
ENDSEC
0
SECTION
2
ENTITIES
0
LWPOLYLINE
5
100
100
AcDbEntity
8
0
100
AcDbPolyline
90
4
70
1
43
0.0
10
44.099999999999994
20
33.300000000000018
10
44.099999999999994
20
26.300000000000029
10
47.699999999999996
20
26.300000000000022
10
47.699999999999996
20
33.300000000000018
0
LWPOLYLINE
5
101
100
AcDbEntity
8
0
100
AcDbPolyline
90
4
70
1
43
0.0
10
-47.657522123893798
20
2.3000000000000069
10
-44.057522123893804
20
2.3000000000000065
10
-44.057522123893804
20
12.700000000000003
10
-47.657522123893798
20
12.700000000000003
0
LWPOLYLINE
5
102
100
AcDbEntity
8
0
100
AcDbPolyline
90
4
70
1
43
0.0
10
-44.057522123893797
20
-18.300000000000004
10
-44.057522123893797
20
-11.299999999999999
10
-47.657522123893798
20
-11.299999999999999
10
-47.657522123893798
20
-18.299999999999997
0
LWPOLYLINE
5
103
100
AcDbEntity
8
0
100
AcDbPolyline
90
4
70
1
43
0.0
10
44.100000000000001
20
2.3000000000000131
10
47.699999999999996
20
2.3000000000000131
10
47.699999999999996
20
12.700000000000006
10
44.100000000000001
20
12.700000000000006
0
LWPOLYLINE
5
104
100
AcDbEntity
8
0
100
AcDbPolyline
90
4
70
1
43
0.0
10
14.9
20
40.299999999999997
10
14.9
20
36.900000000000006
10
25.099999999999998
20
36.900000000000006
10
25.099999999999998
20
40.299999999999997
0
LWPOLYLINE
5
105
100
AcDbEntity
8
0
100
AcDbPolyline
90
4
70
1
43
0.0
10
-47.657522123893798
20
26.300000000000022
10
-44.057522123893797
20
26.300000000000022
10
-44.057522123893797
20
33.299999999999997
10
-47.657522123893798
20
33.300000000000026
0
LWPOLYLINE
5
106
100
AcDbEntity
8
0
100
AcDbPolyline
90
4
70
1
43
0.0
10
-14.857522123893812
20
36.900000000000006
10
-14.857522123893812
20
40.299999999999997
10
-25.057522123893811
20
40.299999999999997
10
-25.057522123893811
20
36.900000000000006
0
LWPOLYLINE
5
107
100
AcDbEntity
8
0
100
AcDbPolyline
90
4
70
1
43
0.0
10
47.699999999999996
20
-18.299999999999997
10
47.699999999999996
20
-11.299999999999999
10
44.099999999999994
20
-11.299999999999999
10
44.099999999999994
20
-18.299999999999997
0
CIRCLE
5
108
100
AcDbEntity
8
0
100
AcDbCircle
10
-29.999999999999769
20
20.000000499999999
30
0
40
3.5000000000000009
0
CIRCLE
5
109
100
AcDbEntity
8
0
100
AcDbCircle
10
30.00000000000022
20
20.000000499999999
30
0
40
3.5000000000000009
0
CIRCLE
5
110
100
AcDbEntity
8
0
100
AcDbCircle
10
30.00000000000022
20
-20.000000500000002
30
0
40
3.5000000000000009
0
CIRCLE
5
111
100
AcDbEntity
8
0
100
AcDbCircle
10
-29.999999999999769
20
-20.000000500000002
30
0
40
3.5000000000000009
0
LWPOLYLINE
5
112
100
AcDbEntity
8
0
100
AcDbPolyline
90
8
70
1
43
0.0
10
-22.49999999999978
20
0
10
-22.49999999999978
20
-30
10
-52.5
20
-30
10
-52.5
20
50
10
52.5
20
50
10
52.5
20
-30
10
22.500000000000231
20
-30
10
22.50000000000022
20
-5.2214150184900355e-16
42
0.99999999999999989
0
LWPOLYLINE
5
113
100
AcDbEntity
8
0
100
AcDbPolyline
90
4
70
1
43
0.0
10
44.099999999999994
20
26.300000000000029
10
44.099999999999994
20
33.300000000000018
10
47.699999999999996
20
33.300000000000018
10
47.699999999999996
20
26.300000000000022
0
LWPOLYLINE
5
114
100
AcDbEntity
8
0
100
AcDbPolyline
90
4
70
1
43
0.0
10
-44.057522123893804
20
2.3000000000000078
10
-47.657522123893798
20
2.3000000000000065
10
-47.657522123893798
20
12.700000000000003
10
-44.057522123893804
20
12.700000000000005
0
LWPOLYLINE
5
115
100
AcDbEntity
8
0
100
AcDbPolyline
90
4
70
1
43
0.0
10
-44.057522123893797
20
-11.299999999999999
10
-44.057522123893797
20
-18.300000000000004
10
-47.657522123893798
20
-18.299999999999997
10
-47.657522123893798
20
-11.299999999999999
0
LWPOLYLINE
5
116
100
AcDbEntity
8
0
100
AcDbPolyline
90
4
70
1
43
0.0
10
47.699999999999996
20
2.3000000000000131
10
44.100000000000001
20
2.3000000000000131
10
44.100000000000001
20
12.700000000000006
10
47.699999999999996
20
12.700000000000006
0
LWPOLYLINE
5
117
100
AcDbEntity
8
0
100
AcDbPolyline
90
4
70
1
43
0.0
10
14.9
20
36.900000000000006
10
14.9
20
40.299999999999997
10
25.099999999999998
20
40.299999999999997
10
25.099999999999998
20
36.900000000000006
0
LWPOLYLINE
5
118
100
AcDbEntity
8
0
100
AcDbPolyline
90
4
70
1
43
0.0
10
-44.057522123893797
20
26.300000000000022
10
-47.657522123893798
20
26.300000000000022
10
-47.657522123893798
20
33.300000000000026
10
-44.057522123893797
20
33.299999999999997
0
LWPOLYLINE
5
119
100
AcDbEntity
8
0
100
AcDbPolyline
90
4
70
1
43
0.0
10
-14.857522123893812
20
40.299999999999997
10
-14.857522123893812
20
36.900000000000006
10
-25.057522123893811
20
36.900000000000006
10
-25.057522123893811
20
40.299999999999997
0
LWPOLYLINE
5
120
100
AcDbEntity
8
0
100
AcDbPolyline
90
4
70
1
43
0.0
10
47.699999999999996
20
-11.299999999999999
10
47.699999999999996
20
-18.299999999999997
10
44.099999999999994
20
-18.299999999999997
10
44.099999999999994
20
-11.299999999999999
0
CIRCLE
5
121
100
AcDbEntity
8
0
100
AcDbCircle
10
-29.999999999999769
20
20.000000499999999
30
0
40
3.5000000000000009
0
CIRCLE
5
122
100
AcDbEntity
8
0
100
AcDbCircle
10
30.00000000000022
20
20.000000499999999
30
0
40
3.5000000000000009
0
CIRCLE
5
123
100
AcDbEntity
8
0
100
AcDbCircle
10
30.00000000000022
20
-20.000000500000002
30
0
40
3.5000000000000009
0
CIRCLE
5
124
100
AcDbEntity
8
0
100
AcDbCircle
10
-29.999999999999769
20
-20.000000500000002
30
0
40
3.5000000000000009
0
LWPOLYLINE
5
125
100
AcDbEntity
8
0
100
AcDbPolyline
90
8
70
1
43
0.0
10
-22.49999999999978
20
-30
10
-22.499999999999783
20
-1.0325074129013728e-15
42
-0.99999999999999989
10
22.500000000000234
20
0
10
22.500000000000234
20
-30
10
52.5
20
-30
10
52.5
20
50
10
-52.5
20
50
10
-52.5
20
-30
0
ENDSEC
0
SECTION
2
OBJECTS
0
DICTIONARY
5
C
100
AcDbDictionary
3
ACAD_GROUP
350
D
3
ACAD_MLINESTYLE
350
17
0
DICTIONARY
5
D
100
AcDbDictionary
0
DICTIONARY
5
1A
330
C
100
AcDbDictionary
0
DICTIONARY
5
17
100
AcDbDictionary
0
ENDSEC
0
EOF
