0
SECTION
2
HEADER
9
$INSUNITS
70
4
9
$ACADVER
1
AC1014
9
$HANDSEED
5
FFFF
0
ENDSEC
0
SECTION
2
TABLES
0
TABLE
2
VPORT
5
8
100
AcDbSymbolTable
0
ENDTAB
0
TABLE
2
LTYPE
5
5
100
AcDbSymbolTable
0
LTYPE
5
14
100
AcDbSymbolTableRecord
100
AcDbLinetypeTableRecord
2
BYBLOCK
70
0
0
LTYPE
5
15
100
AcDbSymbolTableRecord
100
AcDbLinetypeTableRecord
2
BYLAYER
70
0
0
ENDTAB
0
TABLE
2
LAYER
5
2
100
AcDbSymbolTable
70
2
0
LAYER
5
50
100
AcDbSymbolTableRecord
100
AcDbLayerTableRecord
2
0
70
0
6
CONTINUOUS
0
ENDTAB
0
TABLE
2
STYLE
5
3
100
AcDbSymbolTable
70
1
0
STYLE
5
11
100
AcDbSymbolTableRecord
100
AcDbTextStyleTableRecord
2
STANDARD
70
0
0
ENDTAB
0
TABLE
2
VIEW
5
6
100
AcDbSymbolTable
70
0
0
ENDTAB
0
TABLE
2
UCS
5
7
100
AcDbSymbolTable
70
0
0
ENDTAB
0
TABLE
2
APPID
5
9
100
AcDbSymbolTable
70
2
0
APPID
5
12
100
AcDbSymbolTableRecord
100
AcDbRegAppTableRecord
2
ACAD
70
0
0
ENDTAB
0
TABLE
2
DIMSTYLE
5
A
100
AcDbSymbolTable
70
1
0
ENDTAB
0
TABLE
2
BLOCK_RECORD
5
1
100
AcDbSymbolTable
70
1
0
BLOCK_RECORD
5
1F
100
AcDbSymbolTableRecord
100
AcDbBlockTableRecord
2
*MODEL_SPACE
0
BLOCK_RECORD
5
1B
100
AcDbSymbolTableRecord
100
AcDbBlockTableRecord
2
*PAPER_SPACE
0
ENDTAB
0
ENDSEC
0
SECTION
2
BLOCKS
0
BLOCK
5
20
100
AcDbEntity
100
AcDbBlockBegin
2
*MODEL_SPACE
0
ENDBLK
5
21
100
AcDbEntity
100
AcDbBlockEnd
0
BLOCK
5
1C
100
AcDbEntity
100
AcDbBlockBegin
2
*PAPER_SPACE
0
ENDBLK
5
1D
100
AcDbEntity
100
AcDbBlockEnd
0
ENDSEC
0
SECTION
2
ENTITIES
0
LWPOLYLINE
5
100
100
AcDbEntity
8
0
100
AcDbPolyline
90
4
70
1
43
0.0
10
40.100000000000009
20
-246.52782132848398
10
36.900000000000006
20
-246.52782132848398
10
36.900000000000006
20
-253.52782132848398
10
40.100000000000009
20
-253.52782132848398
0
LWPOLYLINE
5
101
100
AcDbEntity
8
0
100
AcDbPolyline
90
4
70
1
43
0.0
10
40.299999999999997
20
-229.34220245022001
10
40.299999999999997
20
-219.14220245021997
10
36.900000000000006
20
-219.14220245021997
10
36.900000000000006
20
-229.34220245022001
0
LWPOLYLINE
5
102
100
AcDbEntity
8
0
100
AcDbPolyline
90
4
70
1
43
0.0
10
36.900000000000006
20
-194.956583571956
10
36.900000000000006
20
-201.956583571956
10
40.100000000000009
20
-201.956583571956
10
40.100000000000009
20
-194.956583571956
0
LWPOLYLINE
5
103
100
AcDbEntity
8
0
100
AcDbPolyline
90
34
70
1
43
0.0
10
-67.534387858976217
20
-352.47499999999968
42
-0.53185081992213634
10
-72.169480903562615
20
-345.59992334342672
42
0.075995840497294048
10
-30
20
-167.67499999999973
10
-20
20
-167.67499999999973
10
-20
20
-182.67499999999973
42
0.99999999999999989
10
-17.999999999999979
20
-182.67499999999973
10
-18
20
-164.37499999999972
10
-19.500000000000028
20
-164.37499999999972
42
-0.15164032328638666
10
-18
20
-159.87499999999972
10
-12.999999999999998
20
-159.87499999999972
10
-13.000000000000009
20
-182.67499999999973
42
0.99999999999999989
10
-10.999999999999977
20
-182.67499999999973
10
-10.99999999999998
20
-167.67499999999973
10
1.9000000000000106
20
-167.67499999999973
42
0.99999999999999989
10
2.5000000000000089
20
-167.67499999999973
10
2.5000000000000133
20
-164.97499999999974
42
-0.41421356237309015
10
3.5000000000000107
20
-163.97499999999974
10
11.500000000000011
20
-163.97499999999974
42
-0.41421356237308982
10
12.500000000000007
20
-164.97499999999974
10
12.500000000000011
20
-167.47499999999974
42
0.68850025806916759
10
13.02360679774999
20
-167.67499999999973
10
25.999999999999979
20
-167.67499999999973
10
25.999999999999975
20
-182.67499999999973
42
0.99999999999999989
10
28.000000000000004
20
-182.67499999999973
10
28
20
-159.87499999999972
10
32.999999999999972
20
-159.87499999999972
42
-0.15164032328638702
10
34.5
20
-164.37499999999972
10
33
20
-164.37499999999972
10
32.999999999999979
20
-182.67499999999973
42
0.99999999999999989
10
34.999999999999986
20
-182.67499999999973
10
35
20
-167.67499999999973
10
50
20
-167.67499999999959
42
0.064984054350673698
10
73.299867499513439
20
-346.1916690839156
42
-0.49245311341472447
10
68.467366929433524
20
-352.47499999999974
0
LWPOLYLINE
5
104
100
AcDbEntity
8
0
100
AcDbPolyline
90
8
70
1
43
0.0
10
5.1163593954243671
20
-217.47499999999974
42
-0.3945912718775067
10
10.104987820950697
20
-222.1379741374455
42
0.043732146913220478
10
25.581830711052955
20
-321.27544817877219
42
-0.48709134837242618
10
20.727855491895966
20
-327.47499999999974
10
-27.966762403833911
20
-327.47499999999974
42
-0.51637833071771688
10
-32.687397341879674
20
-320.82709048133643
42
0.056700444105934125
10
-10.303808271009189
20
-221.92957997589917
42
-0.38255039137453695
10
-5.3336455978857353
20
-217.47499999999974
0
LWPOLYLINE
5
105
100
AcDbEntity
8
0
100
AcDbPolyline
90
4
70
1
43
0.0
10
36.900000000000006
20
-246.52782132848398
10
40.100000000000009
20
-246.52782132848398
10
40.100000000000009
20
-253.52782132848398
10
36.900000000000006
20
-253.52782132848398
0
LWPOLYLINE
5
106
100
AcDbEntity
8
0
100
AcDbPolyline
90
4
70
1
43
0.0
10
40.299999999999997
20
-219.14220245021997
10
40.299999999999997
20
-229.34220245022001
10
36.900000000000006
20
-229.34220245022001
10
36.900000000000006
20
-219.14220245021997
0
LWPOLYLINE
5
107
100
AcDbEntity
8
0
100
AcDbPolyline
90
4
70
1
43
0.0
10
36.900000000000006
20
-201.956583571956
10
36.900000000000006
20
-194.956583571956
10
40.100000000000009
20
-194.956583571956
10
40.100000000000009
20
-201.956583571956
0
LWPOLYLINE
5
108
100
AcDbEntity
8
0
100
AcDbPolyline
90
8
70
1
43
0.0
10
5.116359395424368
20
-217.47499999999974
42
-0.39459127187750598
10
10.104987820950626
20
-222.1379741374455
42
0.043732146913219354
10
25.581830711053037
20
-321.27544817877259
42
-0.48709134837240808
10
20.727855491895962
20
-327.47499999999974
10
-27.966762403833915
20
-327.47499999999968
42
-0.51637833071772221
10
-32.687397341879674
20
-320.82709048133637
42
0.056700444105934375
10
-10.303808271009196
20
-221.92957997589912
42
-0.3825503913745319
10
-5.3336455978857344
20
-217.47499999999974
0
LWPOLYLINE
5
109
100
AcDbEntity
8
0
100
AcDbPolyline
90
34
70
1
43
0.0
10
-67.534387858976203
20
-352.47499999999974
42
-0.53185081992213568
10
-72.169480903562615
20
-345.59992334342672
42
0.075995840497293771
10
-30.000000000000071
20
-167.67500000000035
10
-20
20
-167.67499999999973
10
-20
20
-182.67499999999973
42
0.99999999999999989
10
-17.999999999999979
20
-182.67499999999973
10
-18
20
-164.37499999999972
10
-19.500000000000032
20
-164.37499999999972
42
-0.15164032328638485
10
-18
20
-159.87499999999972
10
-12.999999999999998
20
-159.87499999999972
10
-13.000000000000009
20
-182.67499999999973
42
0.99999999999999989
10
-10.999999999999977
20
-182.67499999999973
10
-10.99999999999998
20
-167.67499999999973
10
1.9000000000000128
20
-167.67499999999973
42
0.99999999999999989
10
2.5000000000000107
20
-167.67499999999973
10
2.5000000000000053
20
-164.97499999999974
42
-0.41421356237309243
10
3.5000000000000107
20
-163.97499999999974
10
11.500000000000011
20
-163.97499999999974
42
-0.41421356237309243
10
12.500000000000007
20
-164.97499999999974
10
12.500000000000011
20
-167.47499999999974
42
0.68850025806916759
10
13.02360679774999
20
-167.67499999999973
10
25.999999999999979
20
-167.67499999999973
10
25.999999999999975
20
-182.67499999999973
42
0.99999999999999989
10
28.000000000000004
20
-182.67499999999973
10
28
20
-159.87499999999972
10
32.999999999999979
20
-159.87499999999972
42
-0.15164032328638621
10
34.5
20
-164.37499999999972
10
33
20
-164.37499999999972
10
32.999999999999979
20
-182.67499999999973
42
0.99999999999999989
10
34.999999999999993
20
-182.67499999999973
10
35
20
-167.67499999999973
10
50
20
-167.67499999999973
42
0.064984054350673698
10
73.299867499513411
20
-346.19166908391549
42
-0.49245311341473219
10
68.467366929433524
20
-352.47499999999974
0
ENDSEC
0
SECTION
2
OBJECTS
0
DICTIONARY
5
C
100
AcDbDictionary
3
ACAD_GROUP
350
D
3
ACAD_MLINESTYLE
350
17
0
DICTIONARY
5
D
100
AcDbDictionary
0
DICTIONARY
5
1A
330
C
100
AcDbDictionary
0
DICTIONARY
5
17
100
AcDbDictionary
0
ENDSEC
0
EOF
