0
SECTION
2
HEADER
9
$INSUNITS
70
4
9
$ACADVER
1
AC1014
9
$HANDSEED
5
FFFF
0
ENDSEC
0
SECTION
2
TABLES
0
TABLE
2
VPORT
5
8
100
AcDbSymbolTable
0
ENDTAB
0
TABLE
2
LTYPE
5
5
100
AcDbSymbolTable
0
LTYPE
5
14
100
AcDbSymbolTableRecord
100
AcDbLinetypeTableRecord
2
BYBLOCK
70
0
0
LTYPE
5
15
100
AcDbSymbolTableRecord
100
AcDbLinetypeTableRecord
2
BYLAYER
70
0
0
ENDTAB
0
TABLE
2
LAYER
5
2
100
AcDbSymbolTable
70
2
0
LAYER
5
50
100
AcDbSymbolTableRecord
100
AcDbLayerTableRecord
2
0
70
0
6
CONTINUOUS
0
ENDTAB
0
TABLE
2
STYLE
5
3
100
AcDbSymbolTable
70
1
0
STYLE
5
11
100
AcDbSymbolTableRecord
100
AcDbTextStyleTableRecord
2
STANDARD
70
0
0
ENDTAB
0
TABLE
2
VIEW
5
6
100
AcDbSymbolTable
70
0
0
ENDTAB
0
TABLE
2
UCS
5
7
100
AcDbSymbolTable
70
0
0
ENDTAB
0
TABLE
2
APPID
5
9
100
AcDbSymbolTable
70
2
0
APPID
5
12
100
AcDbSymbolTableRecord
100
AcDbRegAppTableRecord
2
ACAD
70
0
0
ENDTAB
0
TABLE
2
DIMSTYLE
5
A
100
AcDbSymbolTable
70
1
0
ENDTAB
0
TABLE
2
BLOCK_RECORD
5
1
100
AcDbSymbolTable
70
1
0
BLOCK_RECORD
5
1F
100
AcDbSymbolTableRecord
100
AcDbBlockTableRecord
2
*MODEL_SPACE
0
BLOCK_RECORD
5
1B
100
AcDbSymbolTableRecord
100
AcDbBlockTableRecord
2
*PAPER_SPACE
0
ENDTAB
0
ENDSEC
0
SECTION
2
BLOCKS
0
BLOCK
5
20
100
AcDbEntity
100
AcDbBlockBegin
2
*MODEL_SPACE
0
ENDBLK
5
21
100
AcDbEntity
100
AcDbBlockEnd
0
BLOCK
5
1C
100
AcDbEntity
100
AcDbBlockBegin
2
*PAPER_SPACE
0
ENDBLK
5
1D
100
AcDbEntity
100
AcDbBlockEnd
0
ENDSEC
0
SECTION
2
ENTITIES
0
LWPOLYLINE
5
100
100
AcDbEntity
8
0
100
AcDbPolyline
90
76
70
1
43
0.0
10
-46.988286610186059
20
-229.24220245021999
42
-0.41421356237310542
10
-47.988286610186044
20
-228.24220245021996
10
-47.988286610186037
20
-220.24220245022002
42
-0.41421356237310802
10
-46.988286610186051
20
-219.24220245021999
10
-44.488286610186051
20
-219.24220245021999
42
0.99999999999999989
10
-44.488286610186016
20
-218.64220245021997
10
-44.488286610186037
20
-202.25658357195601
10
-29.488286610186044
20
-202.25658357195601
42
0.99999999999999989
10
-29.488286610186044
20
-200.25658357195599
10
-52.088286610186088
20
-200.25658357195599
10
-52.088286610186067
20
-195.25658357195607
42
-0.1516403232863878
10
-47.58828661018606
20
-193.75658357195607
10
-47.58828661018606
20
-195.25658357195601
10
-29.488286610186044
20
-195.25658357195601
42
0.99999999999999989
10
-29.488286610186044
20
-193.25658357195601
10
-44.5
20
-193.25658357195604
10
-44.499999999999993
20
-167.67499999999973
10
-25.59999999999998
20
-167.67499999999973
42
0.99999999999999989
10
-25
20
-167.67499999999973
10
-25.000000000000014
20
-165.17499999999973
42
-0.41421356237307422
10
-24
20
-164.17499999999973
10
-16
20
-164.17499999999973
42
-0.41421356237307422
10
-15
20
-165.17499999999973
10
-15
20
-167.73055324340547
42
1.0977483518688651
10
-14.405188471821228
20
-167.67499999999973
10
14.400207780985335
20
-167.67499999999973
42
1.0187856005028673
10
15
20
-167.68616357551412
10
14.999999999999986
20
-165.17499999999973
42
-0.41421356237307422
10
16
20
-164.17499999999973
10
24.000000000000004
20
-164.17499999999973
42
-0.41421356237307161
10
25
20
-165.17499999999973
10
25
20
-167.67499999999973
42
0.99999999999999989
10
25.599999999999991
20
-167.67499999999973
10
44.499999999999659
20
-167.67499999999959
10
44.499999999999744
20
-193.25658357195593
10
29.488286610185789
20
-193.25658357195596
42
0.99999999999999989
10
29.488286610185796
20
-195.25658357195596
10
47.588286610185818
20
-195.2565835719559
10
47.588286610185818
20
-193.7565835719559
42
-0.15164032328638827
10
52.088286610185847
20
-195.25658357195593
10
52.088286610185861
20
-200.25658357195584
10
29.488286610185806
20
-200.2565835719559
42
0.99999999999999989
10
29.488286610185813
20
-202.2565835719559
10
44.48828661018581
20
-202.2565835719559
10
44.488286610185853
20
-218.64220245021986
42
0.99999999999999989
10
44.488286610185845
20
-219.24220245021982
10
46.988286610185874
20
-219.24220245021985
42
-0.41421356237311063
10
47.988286610185867
20
-220.24220245021985
10
47.988286610185888
20
-228.24220245021988
42
-0.41421356237307422
10
46.988286610185909
20
-229.24220245021985
10
44.488286610185881
20
-229.24220245021985
42
0.99999999999999989
10
44.488286610185881
20
-229.84220245021987
10
44.488286610185938
20
-246.22782132848357
10
29.488286610185938
20
-246.22782132848357
42
0.99999999999999989
10
29.488286610185938
20
-248.2278213284836
10
52.088286610185989
20
-248.22782132848357
10
52.088286610185989
20
-253.22782132848346
42
-0.15164032328638849
10
47.588286610185975
20
-254.72782132848349
10
47.588286610185975
20
-253.22782132848351
10
29.488286610185956
20
-253.2278213284836
42
0.99999999999999989
10
29.488286610185966
20
-255.22782132848357
10
44.499999999999901
20
-255.22782132848357
10
44.499999999999957
20
-273.22782132848351
10
-44.499999999999993
20
-273.22782132848369
10
-44.5
20
-255.22782132848366
10
-29.488286610186044
20
-255.22782132848366
42
0.99999999999999989
10
-29.488286610186044
20
-253.22782132848369
10
-47.58828661018606
20
-253.22782132848369
10
-47.58828661018606
20
-254.72782132848366
42
-0.15164032328638838
10
-52.088286610186088
20
-253.22782132848363
10
-52.088286610186088
20
-248.22782132848371
10
-29.488286610186044
20
-248.22782132848371
42
0.99999999999999989
10
-29.488286610186044
20
-246.22782132848369
10
-44.488286610186037
20
-246.22782132848369
10
-44.488286610186037
20
-229.84220245022001
42
0.99999999999999989
10
-44.488286610186037
20
-229.24220245021999
0
LWPOLYLINE
5
101
100
AcDbEntity
8
0
100
AcDbPolyline
90
8
70
1
43
0.0
10
-14.93243310316663
20
-196.59580750708059
42
-0.41421356237309453
10
-9.9324331031666411
20
-191.59580750708059
10
10.067566896833364
20
-191.59580750708059
42
-0.41421356237309453
10
15.067566896833362
20
-196.59580750708059
10
15.067566896833348
20
-251.59580750708059
42
-0.41421356237309437
10
10.067566896833359
20
-256.59580750708062
10
-9.9324331031666446
20
-256.59580750708056
42
-0.41421356237309392
10
-14.932433103166641
20
-251.59580750708062
0
LWPOLYLINE
5
102
100
AcDbEntity
8
0
100
AcDbPolyline
90
8
70
1
43
0.0
10
-14.93243310316663
20
-196.59580750708059
42
-0.41421356237309453
10
-9.9324331031666411
20
-191.59580750708059
10
10.067566896833364
20
-191.59580750708059
42
-0.41421356237309453
10
15.067566896833362
20
-196.59580750708059
10
15.067566896833348
20
-251.59580750708059
42
-0.41421356237309437
10
10.067566896833357
20
-256.59580750708062
10
-9.9324331031666429
20
-256.59580750708056
42
-0.41421356237309614
10
-14.932433103166641
20
-251.59580750708059
0
LWPOLYLINE
5
103
100
AcDbEntity
8
0
100
AcDbPolyline
90
76
70
1
43
0.0
10
-46.988286610186059
20
-229.24220245021999
42
-0.41421356237309243
10
-47.988286610186044
20
-228.24220245021996
10
-47.988286610186066
20
-220.24220245022002
42
-0.41421356237309503
10
-46.988286610186051
20
-219.24220245021999
10
-44.488286610186051
20
-219.24220245021999
42
0.99999999999999989
10
-44.488286610186016
20
-218.64220245021997
10
-44.488286610186037
20
-202.25658357195601
10
-29.488286610186044
20
-202.25658357195601
42
0.99999999999999989
10
-29.488286610186044
20
-200.25658357195599
10
-52.088286610186088
20
-200.25658357195599
10
-52.088286610186074
20
-195.25658357195607
42
-0.15164032328638827
10
-47.58828661018606
20
-193.75658357195607
10
-47.58828661018606
20
-195.25658357195601
10
-29.488286610186044
20
-195.25658357195601
42
0.99999999999999989
10
-29.488286610186044
20
-193.25658357195601
10
-44.5
20
-193.25658357195604
10
-44.499999999999993
20
-167.67499999999973
10
-25.59999999999998
20
-167.67499999999973
42
0.99999999999999989
10
-25
20
-167.67499999999973
10
-25.000000000000014
20
-165.17499999999973
42
-0.41421356237309503
10
-24
20
-164.17499999999973
10
-16
20
-164.17499999999973
42
-0.41421356237309503
10
-15
20
-165.17499999999973
10
-15
20
-167.73055324340547
42
1.0977483518688627
10
-14.405188471821234
20
-167.67499999999973
10
14.400207780985335
20
-167.67499999999973
42
1.0187856005028673
10
15
20
-167.68616357551412
10
14.999999999999986
20
-165.17499999999973
42
-0.41421356237309503
10
16
20
-164.17499999999973
10
24.000000000000004
20
-164.17499999999973
42
-0.41421356237309503
10
25.000000000000004
20
-165.17499999999973
10
25
20
-167.67499999999973
42
0.99999999999999989
10
25.599999999999994
20
-167.67499999999973
10
44.499999999999666
20
-167.67499999999959
10
44.499999999999751
20
-193.25658357195593
10
29.488286610185789
20
-193.25658357195596
42
0.99999999999999989
10
29.488286610185789
20
-195.25658357195593
10
47.588286610185818
20
-195.2565835719559
10
47.588286610185818
20
-193.7565835719559
42
-0.15164032328638871
10
52.088286610185854
20
-195.25658357195593
10
52.088286610185861
20
-200.25658357195584
10
29.488286610185806
20
-200.25658357195593
42
0.99999999999999989
10
29.488286610185813
20
-202.2565835719559
10
44.48828661018581
20
-202.2565835719559
10
44.488286610185853
20
-218.64220245021986
42
0.99999999999999989
10
44.488286610185853
20
-219.24220245021982
10
46.988286610185874
20
-219.24220245021985
42
-0.41421356237309764
10
47.988286610185881
20
-220.24220245021985
10
47.988286610185909
20
-228.24220245021988
42
-0.41421356237309243
10
46.988286610185909
20
-229.24220245021988
10
44.488286610185881
20
-229.24220245021985
42
0.99999999999999989
10
44.488286610185881
20
-229.84220245021987
10
44.488286610185938
20
-246.22782132848357
10
29.488286610185938
20
-246.22782132848357
42
0.99999999999999989
10
29.488286610185938
20
-248.2278213284836
10
52.088286610185989
20
-248.22782132848357
10
52.088286610185989
20
-253.22782132848346
42
-0.15164032328638849
10
47.588286610185975
20
-254.72782132848349
10
47.588286610185975
20
-253.22782132848351
10
29.488286610185956
20
-253.2278213284836
42
0.99999999999999989
10
29.488286610185956
20
-255.22782132848363
10
44.499999999999915
20
-255.22782132848357
10
44.499999999999957
20
-273.22782132848351
10
-44.499999999999993
20
-273.22782132848369
10
-44.5
20
-255.22782132848366
10
-29.488286610186044
20
-255.22782132848366
42
0.99999999999999989
10
-29.488286610186044
20
-253.22782132848371
10
-47.58828661018606
20
-253.22782132848369
10
-47.58828661018606
20
-254.72782132848366
42
-0.15164032328638838
10
-52.088286610186088
20
-253.22782132848363
10
-52.088286610186088
20
-248.22782132848371
10
-29.488286610186044
20
-248.22782132848371
42
0.99999999999999989
10
-29.488286610186044
20
-246.22782132848369
10
-44.488286610186037
20
-246.22782132848369
10
-44.488286610186037
20
-229.84220245022001
42
0.99999999999999989
10
-44.488286610186037
20
-229.24220245021999
0
ENDSEC
0
SECTION
2
OBJECTS
0
DICTIONARY
5
C
100
AcDbDictionary
3
ACAD_GROUP
350
D
3
ACAD_MLINESTYLE
350
17
0
DICTIONARY
5
D
100
AcDbDictionary
0
DICTIONARY
5
1A
330
C
100
AcDbDictionary
0
DICTIONARY
5
17
100
AcDbDictionary
0
ENDSEC
0
EOF
