<?xml version="1.0" encoding="UTF-8" standalone="no"?>
<svg
   xmlns:dc="http://purl.org/dc/elements/1.1/"
   xmlns:cc="http://creativecommons.org/ns#"
   xmlns:rdf="http://www.w3.org/1999/02/22-rdf-syntax-ns#"
   xmlns:svg="http://www.w3.org/2000/svg"
   xmlns="http://www.w3.org/2000/svg"
   version="1.1"
   id="svg7442"
   viewBox="0 0 744.09448819 1052.3622047"
   height="297mm"
   width="210mm">
  <defs
     id="defs7444">
    <marker
       refY="0.0"
       refX="0.0"
       style="overflow:visible"
       id="DistanceX"
       orient="auto">
      <path
         style="stroke:#000000; stroke-width:0.5"
         d="M 3,-3 L -3,3 M 0,-5 L  0,5"
         id="path7997" />
    </marker>
    <pattern
       height="8"
       width="8"
       patternUnits="userSpaceOnUse"
       y="0"
       x="0"
       id="Hatch">
      <path
         linecap="square"
         stroke="#000000"
         stroke-width="0.25"
         d="M8 4 l-4,4"
         id="path8000" />
      <path
         linecap="square"
         stroke="#000000"
         stroke-width="0.25"
         d="M6 2 l-4,4"
         id="path8002" />
      <path
         linecap="square"
         stroke="#000000"
         stroke-width="0.25"
         d="M4 0 l-4,4"
         id="path8004" />
    </pattern>
    <symbol
       id="*MODEL_SPACE" />
    <symbol
       id="*PAPER_SPACE" />
  </defs>
  <metadata
     id="metadata7447">
    <rdf:RDF>
      <cc:Work
         rdf:about="">
        <dc:format>image/svg+xml</dc:format>
        <dc:type
           rdf:resource="http://purl.org/dc/dcmitype/StillImage" />
        <dc:title></dc:title>
      </cc:Work>
    </rdf:RDF>
  </metadata>
  <g
     id="layer1">
    <g
       transform="translate(205.7143,-989.212)"
       id="g8008">
      <path
         style="fill:none;stroke:#000000"
         d="m -166.4939,1864.638 a 3.543307,3.543307 0 0 1 -3.5433,-3.544 l 0,-28.346 a 3.543307,3.543307 0 0 1 3.5433,-3.543 l 8.8582,0 a 1.063,1.063 0 0 0 0,-2.126 l 0,-58.06 53.1496,0 a 3.543307,3.543307 0 0 0 0,-7.086 l -80.0787,0 0,-17.717 a 28.34646,28.34646 0 0 1 15.9449,-5.315 l 0,5.315 64.1338,0 a 3.543307,3.543307 0 0 0 0,-7.086 l -53.1911,0 0,-90.644 66.96854,0 a 1.062992,1.062992 0 0 0 2.12598,0 l 0,-8.858 a 3.543307,3.543307 0 0 1 3.54331,-3.543 l 28.34646,0 a 3.543307,3.543307 0 0 1 3.5433,3.543 l 0,9.055 a 1.062992,1.062992 0 1 0 2.1076,-0.197 l 102.06637,0 a 1.062992,1.062992 0 1 0 2.12525,0.04 l 0,-8.898 a 3.543307,3.543307 0 0 1 3.5433,-3.543 l 28.34646,0 a 3.543307,3.543307 0 0 1 3.54331,3.543 l 0,8.858 a 1.062992,1.062992 0 0 0 2.12598,0 l 66.96854,0 0,90.644 -53.1911,0 a 3.543307,3.543307 0 0 0 0,7.086 l 64.1338,0 0,-5.315 a 28.34646,28.34646 0 0 1 15.9449,5.315 l 0,17.717 -80.0787,0 a 3.543307,3.543307 0 0 0 0,7.086 l 53.1496,0 0,58.06 a 1.063,1.063 0 0 0 0,2.126 l 8.8582,0 a 3.543307,3.543307 0 0 1 3.5433,3.543 l 0,28.346 a 3.543307,3.543307 0 0 1 -3.5433,3.544 l -8.8582,0 a 1.063,1.063 0 0 0 0,2.126 l 0,58.059 -53.1496,0 a 3.5435,3.5435 0 0 0 0,7.087 l 80.0787,0 0,17.716 a 28.34646,28.34646 0 0 1 -15.9449,5.315 l 0,-5.315 -64.1338,0 a 3.5435,3.5435 0 0 0 0,7.087 l 53.1911,0 0,63.779 -315.3544,0 0,-63.779 53.1911,0 a 3.5435,3.5435 0 0 0 0,-7.087 l -64.1338,0 0,5.315 a 28.34646,28.34646 0 0 1 -15.9449,-5.315 l 0,-17.716 80.0787,0 a 3.5435,3.5435 0 0 0 0,-7.087 l -53.1496,0 0,-58.059 a 1.063,1.063 0 0 0 0,-2.126 l -8.8582,0 z"
         id="path8010" />
      <path
         style="fill:none;stroke:#000000"
         d="m -52.9102,1748.962 a 17.71654,17.71654 0 0 1 17.71654,-17.717 l 70.86614,0 a 17.71654,17.71654 0 0 1 17.71654,17.717 l 0,194.881 a 17.71654,17.71654 0 0 1 -17.71654,17.717 l -70.86614,0 a 17.71654,17.71654 0 0 1 -17.71654,-17.717 l 0,-194.881 z"
         id="path8012" />
      <path
         style="fill:none;stroke:#000000"
         d="m -52.9102,1748.962 a 17.71654,17.71654 0 0 1 17.71654,-17.717 l 70.86614,0 a 17.71654,17.71654 0 0 1 17.71654,17.717 l 0,194.881 a 17.71654,17.71654 0 0 1 -17.71654,17.717 l -70.86614,0 a 17.71654,17.71654 0 0 1 -17.71654,-17.717 l 0,-194.881 z"
         id="path8014" />
      <path
         style="fill:none;stroke:#000000"
         d="m -166.4939,1864.638 a 3.543307,3.543307 0 0 1 -3.5433,-3.544 l 0,-28.346 a 3.543307,3.543307 0 0 1 3.5433,-3.543 l 8.8582,0 a 1.063,1.063 0 0 0 0,-2.126 l 0,-58.06 53.1496,0 a 3.543307,3.543307 0 0 0 0,-7.086 l -80.0787,0 0,-17.717 a 28.34646,28.34646 0 0 1 15.9449,-5.315 l 0,5.315 64.1338,0 a 3.543307,3.543307 0 0 0 0,-7.086 l -53.1911,0 0,-90.644 66.96854,0 a 1.062992,1.062992 0 0 0 2.12598,0 l 0,-8.858 a 3.543307,3.543307 0 0 1 3.54331,-3.543 l 28.34646,0 a 3.543307,3.543307 0 0 1 3.5433,3.543 l 0,9.055 a 1.062992,1.062992 0 1 0 2.1076,-0.197 l 102.06637,0 a 1.062992,1.062992 0 1 0 2.12525,0.04 l 0,-8.898 a 3.543307,3.543307 0 0 1 3.5433,-3.543 l 28.34646,0 a 3.543307,3.543307 0 0 1 3.54331,3.543 l 0,8.858 a 1.062992,1.062992 0 0 0 2.12598,0 l 66.96854,0 0,90.644 -53.1911,0 a 3.543307,3.543307 0 0 0 0,7.086 l 64.1338,0 0,-5.315 a 28.34646,28.34646 0 0 1 15.9449,5.315 l 0,17.717 -80.0787,0 a 3.543307,3.543307 0 0 0 0,7.086 l 53.1496,0 0,58.06 a 1.063,1.063 0 0 0 0,2.126 l 8.8582,0 a 3.543307,3.543307 0 0 1 3.5433,3.543 l 0,28.346 a 3.543307,3.543307 0 0 1 -3.5433,3.544 l -8.8582,0 a 1.063,1.063 0 0 0 0,2.126 l 0,58.059 -53.1496,0 a 3.5435,3.5435 0 0 0 0,7.087 l 80.0787,0 0,17.716 a 28.34646,28.34646 0 0 1 -15.9449,5.315 l 0,-5.315 -64.1338,0 a 3.5435,3.5435 0 0 0 0,7.087 l 53.1911,0 0,63.779 -315.3544,0 0,-63.779 53.1911,0 a 3.5435,3.5435 0 0 0 0,-7.087 l -64.1338,0 0,5.315 a 28.34646,28.34646 0 0 1 -15.9449,-5.315 l 0,-17.716 80.0787,0 a 3.5435,3.5435 0 0 0 0,-7.087 l -53.1496,0 0,-58.059 a 1.063,1.063 0 0 0 0,-2.126 l -8.8582,0 z"
         id="path8016" />
    </g>
  </g>
</svg>
